<?xml version="1.0" standalone="no"?>
<!DOCTYPE svg PUBLIC "-//W3C//DTD SVG 20010904//EN"
 "http://www.w3.org/TR/2001/REC-SVG-20010904/DTD/svg10.dtd">
<svg version="1.0" xmlns="http://www.w3.org/2000/svg"
 width="200.000000pt" height="200.000000pt" viewBox="0 0 200.000000 200.000000"
 preserveAspectRatio="xMidYMid meet">
<metadata>
Created by potrace 1.11, written by Peter Selinger 2001-2013
</metadata>
<g transform="translate(0.000000,200.000000) scale(0.100000,-0.100000)"
fill="#000000" stroke="none">
<path d="M920 1828 c-507 -45 -851 -541 -725 -1043 26 -103 110 -256 188 -340
171 -186 380 -278 626 -276 47 1 97 3 111 6 115 23 162 38 239 75 362 178 545
573 446 964 -8 34 -38 107 -66 163 -153 305 -473 481 -819 451z m285 -196
c179 -62 314 -179 390 -337 49 -101 68 -184 68 -295 0 -255 -140 -482 -368
-594 -358 -177 -785 -5 -922 371 -32 87 -38 128 -36 244 2 162 67 318 184 438
182 188 446 255 684 173z"/>
<path d="M893 1403 c-48 -11 -69 -22 -92 -48 -33 -38 -54 -100 -49 -148 l3
-32 71 0 72 0 5 38 c7 49 41 87 80 87 40 0 87 -48 88 -92 1 -18 2 -40 3 -48 3
-31 -28 -87 -76 -137 -53 -57 -74 -98 -80 -153 l-3 -35 60 -2 c80 -4 100 2
102 28 2 24 35 76 87 134 99 110 102 250 7 357 -18 20 -47 42 -64 47 -53 18
-148 20 -214 4z"/>
<path d="M918 743 c-2 -5 -3 -42 -3 -83 l1 -75 84 0 84 0 1 70 c1 39 -1 76 -3
83 -5 13 -158 18 -164 5z"/>
</g>
</svg>
